<?xml version="1.0" encoding="utf-8"?>
<!-- Generator: Adobe Illustrator 16.0.0, SVG Export Plug-In . SVG Version: 6.00 Build 0)  -->
<!DOCTYPE svg PUBLIC "-//W3C//DTD SVG 1.1//EN" "http://www.w3.org/Graphics/SVG/1.1/DTD/svg11.dtd">
<svg version="1.1" id="Layer_1" xmlns="http://www.w3.org/2000/svg" xmlns:xlink="http://www.w3.org/1999/xlink" x="0px" y="0px"
	 width="1024px" height="1024px" viewBox="0 0 1024 1024" enable-background="new 0 0 1024 1024" xml:space="preserve">
<rect fill="#FFFFFF" width="1024.001" height="1024"/>
<path d="M468.729,0c-21.25,0-44.927,16.21-52.613,36.024L214.039,556.93c-7.686,19.813,3.413,36.024,24.665,36.024h145.932
	c21.251,0,31.9,16.026,23.664,35.618L249.119,1007.16c-8.238,19.591-3.543,22.52,10.431,6.509l533.62-611.406
	c13.974-16.011,8.02-28.88-13.229-28.599l-180.016,2.384c-21.249,0.281-28.565-13.664-16.259-30.988L806.423,31.5
	C818.729,14.175,811.412,0,790.161,0H468.729z"/>
</svg>
